<svg width="61" height="50" viewBox="0 0 61 50" fill="none" xmlns="http://www.w3.org/2000/svg">
<path d="M0.970703 49.4899L6.5107 41.7099L0.970703 33.9199H54.5507L60.0907 41.7099L54.5507 49.4899H0.970703Z" fill="white" stroke="black" stroke-miterlimit="10"/>
<path d="M37.8105 33.9199L43.3505 41.7099L37.8105 49.4899" fill="white"/>
<path d="M37.8105 33.9199L43.3505 41.7099L37.8105 49.4899" stroke="black" stroke-miterlimit="10"/>
<path d="M20.6191 33.9199L26.1591 41.7099L20.6191 49.4899" fill="white"/>
<path d="M20.6191 33.9199L26.1591 41.7099L20.6191 49.4899" stroke="black" stroke-miterlimit="10"/>
<path d="M28.9508 26.8C36.2133 26.8 42.1008 20.9125 42.1008 13.65C42.1008 6.38745 36.2133 0.5 28.9508 0.5C21.6882 0.5 15.8008 6.38745 15.8008 13.65C15.8008 20.9125 21.6882 26.8 28.9508 26.8Z" fill="#FFCF00" stroke="black" stroke-miterlimit="10"/>
<path d="M22.8203 13.38L27.2103 17.76L36.2203 8.75" stroke="black" stroke-miterlimit="10"/>
</svg>
