<svg width="50" height="50" viewBox="0 0 50 50" fill="none" xmlns="http://www.w3.org/2000/svg">
<path d="M23.1191 23.3099L23.5792 22.8499C23.5792 22.8499 25.5791 21.6899 25.6891 16.2299C25.6891 13.3499 30.3691 9.3699 34.7891 12.8399C38.1791 15.4899 37.3391 24.7399 30.9691 31.1099" fill="#FFCF00"/>
<path d="M23.1191 23.3099L23.5792 22.8499C23.5792 22.8499 25.5791 21.6899 25.6891 16.2299C25.6891 13.3499 30.3691 9.3699 34.7891 12.8399C38.1791 15.4899 37.3391 24.7399 30.9691 31.1099" stroke="black" stroke-miterlimit="10"/>
<path d="M26.4106 14.29L21.8906 12.3" stroke="black" stroke-miterlimit="10"/>
<path d="M36.8008 18.6001L41.3408 19.9101" stroke="black" stroke-miterlimit="10"/>
<path d="M35.2305 24.8899L39.1005 27.3199" stroke="black" stroke-miterlimit="10"/>
<path d="M31.5102 11.55L30.9902 6.27002" stroke="black" stroke-miterlimit="10"/>
<path d="M23.1508 23.25L22.6808 23.71C22.6808 23.71 21.5308 25.71 16.0708 25.83C13.1908 25.88 9.20079 30.5 12.6708 34.93C15.3308 38.31 24.5808 37.47 30.9408 31.11" fill="#FFCF00"/>
<path d="M23.1508 23.25L22.6808 23.71C22.6808 23.71 21.5308 25.71 16.0708 25.83C13.1908 25.88 9.20079 30.5 12.6708 34.93C15.3308 38.31 24.5808 37.47 30.9408 31.11" stroke="black" stroke-miterlimit="10"/>
<path d="M14.1502 26.55L12.1602 22.03" stroke="black" stroke-miterlimit="10"/>
<path d="M18.4609 36.9399L19.7709 41.4699" stroke="black" stroke-miterlimit="10"/>
<path d="M24.75 35.3701L27.18 39.2401" stroke="black" stroke-miterlimit="10"/>
<path d="M11.4209 31.6499L6.13086 31.1299" stroke="black" stroke-miterlimit="10"/>
<path d="M24.72 48.94C38.0963 48.94 48.94 38.0963 48.94 24.72C48.94 11.3437 38.0963 0.5 24.72 0.5C11.3437 0.5 0.5 11.3437 0.5 24.72C0.5 38.0963 11.3437 48.94 24.72 48.94Z" stroke="black" stroke-miterlimit="10"/>
<path d="M7.66016 7.57007L41.7802 41.6801" stroke="black" stroke-miterlimit="10"/>
</svg>
