<svg width="67" height="46" viewBox="0 0 67 46" fill="none" xmlns="http://www.w3.org/2000/svg">
<path d="M54.06 0.5H8C3.85786 0.5 0.5 3.85786 0.5 8V37.94C0.5 42.0821 3.85786 45.44 8 45.44H54.06C58.2021 45.44 61.56 42.0821 61.56 37.94V8C61.56 3.85786 58.2021 0.5 54.06 0.5Z" fill="#FFCF00"/>
<path d="M54.0599 1C55.9165 1 57.6969 1.73751 59.0096 3.05026C60.3224 4.36302 61.0599 6.14348 61.0599 8V37.94C61.0599 39.7965 60.3224 41.577 59.0096 42.8898C57.6969 44.2025 55.9165 44.94 54.0599 44.94H8C6.14348 44.94 4.36293 44.2025 3.05017 42.8898C1.73742 41.577 1 39.7965 1 37.94V8C1 6.14348 1.73742 4.36302 3.05017 3.05026C4.36293 1.73751 6.14348 1 8 1H54.0599ZM54.0599 0H8C5.87827 0 3.84343 0.842879 2.34314 2.34317C0.842849 3.84346 0 5.87827 0 8V37.94C0 40.0617 0.842849 42.0966 2.34314 43.5969C3.84343 45.0972 5.87827 45.94 8 45.94H54.0599C56.1817 45.94 58.2165 45.0972 59.7168 43.5969C61.2171 42.0966 62.0599 40.0617 62.0599 37.94V8C62.0599 5.87827 61.2171 3.84346 59.7168 2.34317C58.2165 0.842879 56.1817 0 54.0599 0Z" fill="black"/>
<path d="M52.2691 15.63H63.9091C64.4395 15.63 64.9482 15.8407 65.3233 16.2158C65.6984 16.5909 65.9091 17.0996 65.9091 17.63V29.1C65.9091 29.6304 65.6984 30.1391 65.3233 30.5142C64.9482 30.8893 64.4395 31.1 63.9091 31.1H52.2691C50.2189 31.1 48.2528 30.2856 46.8031 28.8359C45.3535 27.3863 44.5391 25.4201 44.5391 23.37C44.5378 22.354 44.7367 21.3478 45.1246 20.4088C45.5125 19.4698 46.0817 18.6165 46.7996 17.8976C47.5175 17.1787 48.3701 16.6085 49.3086 16.2194C50.2471 15.8303 51.2531 15.63 52.2691 15.63Z" fill="white" stroke="black" stroke-miterlimit="10"/>
<path d="M52.2009 25.68C53.4822 25.68 54.5209 24.6413 54.5209 23.36C54.5209 22.0787 53.4822 21.04 52.2009 21.04C50.9196 21.04 49.8809 22.0787 49.8809 23.36C49.8809 24.6413 50.9196 25.68 52.2009 25.68Z" fill="black"/>
</svg>
