<svg width="50" height="50" viewBox="0 0 50 50" fill="none" xmlns="http://www.w3.org/2000/svg">
<path d="M28.961 2.27007C29.6996 1.45041 30.6739 0.879629 31.75 0.636216C32.8262 0.392803 33.9513 0.488706 34.9707 0.910722C35.9901 1.33274 36.8538 2.06015 37.443 2.99297C38.0322 3.92579 38.3179 5.01823 38.261 6.12007C38.2238 6.86663 38.3434 7.61272 38.6121 8.31023C38.8809 9.00774 39.2928 9.64117 39.8214 10.1697C40.3499 10.6983 40.9834 11.1102 41.6809 11.379C42.3784 11.6477 43.1245 11.7673 43.871 11.7301C44.9707 11.6757 46.0602 11.9625 46.9905 12.5513C47.9208 13.1401 48.6464 14.002 49.0679 15.0191C49.4894 16.0362 49.5862 17.1587 49.3451 18.233C49.104 19.3072 48.5368 20.2807 47.721 21.0201C47.166 21.5208 46.7223 22.1324 46.4186 22.8154C46.1149 23.4984 45.958 24.2376 45.958 24.9851C45.958 25.7325 46.1149 26.4717 46.4186 27.1547C46.7223 27.8377 47.166 28.4494 47.721 28.9501C48.5407 29.6886 49.1115 30.6629 49.3549 31.7391C49.5983 32.8152 49.5024 33.9403 49.0804 34.9597C48.6584 35.9791 47.9309 36.8428 46.9981 37.432C46.0653 38.0212 44.9729 38.3069 43.871 38.25C43.1245 38.2128 42.3784 38.3324 41.6809 38.6012C40.9834 38.8699 40.3499 39.2818 39.8214 39.8104C39.2928 40.3389 38.8809 40.9724 38.6121 41.6699C38.3434 42.3674 38.2238 43.1135 38.261 43.8601C38.3179 44.9619 38.0322 46.0543 37.443 46.9871C36.8538 47.92 35.9901 48.6474 34.9707 49.0694C33.9513 49.4914 32.8262 49.5873 31.75 49.3439C30.6739 49.1005 29.6996 48.5297 28.961 47.7101C28.4603 47.1551 27.8487 46.7113 27.1657 46.4076C26.4827 46.1039 25.7435 45.947 24.996 45.947C24.2486 45.947 23.5094 46.1039 22.8264 46.4076C22.1434 46.7113 21.5317 47.1551 21.031 47.7101C20.2916 48.5258 19.3182 49.093 18.2439 49.3341C17.1697 49.5752 16.0472 49.4784 15.0301 49.0569C14.013 48.6354 13.1511 47.9098 12.5623 46.9795C11.9735 46.0492 11.6867 44.9597 11.741 43.8601C11.7783 43.1135 11.6587 42.3674 11.3899 41.6699C11.1212 40.9724 10.7093 40.3389 10.1807 39.8104C9.65216 39.2818 9.0187 38.8699 8.32119 38.6012C7.62368 38.3324 6.8776 38.2128 6.13104 38.25C5.02919 38.3069 3.93678 38.0212 3.00396 37.432C2.07114 36.8428 1.34372 35.9791 0.921703 34.9597C0.499687 33.9403 0.403792 32.8152 0.647205 31.7391C0.890618 30.6629 1.46138 29.6886 2.28104 28.9501C2.83606 28.4494 3.27978 27.8377 3.58348 27.1547C3.88719 26.4717 4.04412 25.7325 4.04412 24.9851C4.04412 24.2376 3.88719 23.4984 3.58348 22.8154C3.27978 22.1324 2.83606 21.5208 2.28104 21.0201C1.46531 20.2807 0.898064 19.3072 0.656963 18.233C0.415861 17.1587 0.512696 16.0362 0.9342 15.0191C1.3557 14.002 2.08127 13.1401 3.01157 12.5513C3.94187 11.9625 5.03142 11.6757 6.13104 11.7301C6.8732 11.7668 7.61488 11.6485 8.30881 11.3827C9.00274 11.117 9.63369 10.7096 10.1615 10.1865C10.6893 9.66343 11.1023 9.03614 11.3742 8.34462C11.6462 7.6531 11.7711 6.91253 11.741 6.17006C11.6867 5.07044 11.9735 3.98088 12.5623 3.05058C13.1511 2.12028 14.013 1.39473 15.0301 0.973222C16.0472 0.551718 17.1697 0.454898 18.2439 0.696C19.3182 0.937102 20.2916 1.50433 21.031 2.32005C21.5352 2.87193 22.1497 3.31181 22.8346 3.61122C23.5195 3.91063 24.2597 4.0629 25.0072 4.05818C25.7547 4.05347 26.4928 3.89187 27.1739 3.58385C27.855 3.27583 28.4639 2.82825 28.961 2.27007Z" fill="#FFCF00" stroke="black" stroke-miterlimit="10"/>
<path d="M13.6001 17.54C13.5652 16.17 14.043 14.8362 14.9401 13.8C15.3698 13.316 15.8972 12.9286 16.4876 12.6632C17.0779 12.3979 17.7178 12.2607 18.3651 12.2607C19.0123 12.2607 19.6522 12.3979 20.2426 12.6632C20.833 12.9286 21.3604 13.316 21.7901 13.8C22.6844 14.8372 23.1587 16.1711 23.1201 17.54V18.89C23.1594 20.2513 22.6886 21.578 21.8001 22.61C21.3859 23.1101 20.8641 23.5102 20.2736 23.7803C19.6832 24.0505 19.0393 24.1837 18.3901 24.17C17.7349 24.1918 17.0832 24.0666 16.4827 23.8036C15.8822 23.5406 15.3483 23.1464 14.9201 22.6501C14.0218 21.6225 13.5434 20.2944 13.5801 18.9301L13.6001 17.54ZM14.6001 18.89C14.5786 19.9753 14.9317 21.0348 15.6001 21.89C15.9327 22.3066 16.3584 22.6394 16.8429 22.8617C17.3275 23.084 17.8574 23.1896 18.3901 23.17C18.9188 23.1961 19.4461 23.0953 19.928 22.8761C20.4098 22.6569 20.8323 22.3257 21.1601 21.91C21.8248 21.0528 22.1776 19.9946 22.1601 18.91V17.5601C22.176 16.4757 21.8234 15.418 21.1601 14.5601C20.8137 14.1565 20.3841 13.8325 19.9008 13.6104C19.4175 13.3884 18.892 13.2734 18.3601 13.2734C17.8282 13.2734 17.3026 13.3884 16.8194 13.6104C16.3361 13.8325 15.9065 14.1565 15.5601 14.5601C14.8939 15.4165 14.541 16.4752 14.5601 17.5601L14.6001 18.89ZM19.7301 35.89L18.9401 35.35L31.3901 15.3701L32.1701 15.91L19.7301 35.89ZM26.8801 31.89C26.84 30.5322 27.303 29.2074 28.1801 28.17C28.6116 27.6872 29.1401 27.3009 29.7312 27.0364C30.3223 26.7719 30.9625 26.6352 31.6101 26.6352C32.2576 26.6352 32.8979 26.7719 33.489 27.0364C34.08 27.3009 34.6086 27.6872 35.0401 28.17C35.9337 29.2036 36.4082 30.5343 36.3701 31.9001V33.2701C36.409 34.6342 35.9384 35.964 35.0501 37C34.6178 37.4815 34.0889 37.8665 33.4979 38.1301C32.907 38.3937 32.2672 38.5299 31.6201 38.5299C30.973 38.5299 30.3332 38.3937 29.7422 38.1301C29.1513 37.8665 28.6224 37.4815 28.1901 37C27.292 35.9684 26.8138 34.6373 26.8501 33.2701L26.8801 31.89ZM27.8801 33.26C27.8658 34.3442 28.2182 35.4013 28.8801 36.26C29.2338 36.657 29.6674 36.9748 30.1526 37.1923C30.6377 37.4099 31.1634 37.5223 31.6951 37.5223C32.2268 37.5223 32.7525 37.4099 33.2376 37.1923C33.7228 36.9748 34.1564 36.657 34.5101 36.26C35.172 35.4013 35.5244 34.3442 35.5101 33.26V31.89C35.5455 30.7813 35.1917 29.6952 34.5101 28.82C34.1657 28.4106 33.7306 28.0872 33.2393 27.8754C32.7481 27.6636 32.2142 27.5693 31.6801 27.6C31.1512 27.5721 30.6231 27.6689 30.1385 27.8826C29.6539 28.0962 29.2263 28.4208 28.8901 28.83C28.2077 29.7009 27.8537 30.7843 27.8901 31.89L27.8801 33.26Z" fill="black"/>
</svg>
