<svg width="83" height="51" viewBox="0 0 83 51" fill="none" xmlns="http://www.w3.org/2000/svg">
<path d="M56.1602 24.5499L56.5202 12.6299L68.2702 12.8999L81.1702 24.5499L79.6202 25.1799L56.1602 24.5499Z" fill="white"/>
<path d="M82.41 25.18V43.99H23.5C22.0041 43.9892 20.5382 43.5691 19.2691 42.7772C17.9999 41.9853 16.9782 40.8533 16.32 39.51C15.7769 38.4163 15.4962 37.2111 15.5 35.99V20.49C15.5 18.3683 16.3429 16.3334 17.8432 14.8331C19.3435 13.3328 21.3783 12.49 23.5 12.49H67.79L82.41 25.18Z" fill="#FFCF00" stroke="black" stroke-miterlimit="10"/>
<path d="M8 46.16C6.01169 46.1574 4.10553 45.3663 2.69958 43.9604C1.29364 42.5544 0.502646 40.6483 0.5 38.66V8C0.502646 6.01169 1.29364 4.10557 2.69958 2.69962C4.10553 1.29367 6.01169 0.502646 8 0.5H48.8099C50.7991 0.5 52.7068 1.29016 54.1133 2.69669C55.5198 4.10321 56.3099 6.01088 56.3099 8V38.68C56.3047 40.6675 55.5128 42.5721 54.1074 43.9774C52.702 45.3828 50.7974 46.1747 48.8099 46.18L8 46.16Z" fill="#FFCF00"/>
<path d="M48.8199 1C50.6765 1 52.4569 1.73748 53.7697 3.05023C55.0824 4.36299 55.8199 6.14348 55.8199 8V38.68C55.8199 40.5365 55.0824 42.317 53.7697 43.6297C52.4569 44.9425 50.6765 45.68 48.8199 45.68H8C6.14348 45.68 4.36293 44.9425 3.05017 43.6297C1.73742 42.317 1 40.5365 1 38.68V8C1 6.14348 1.73742 4.36299 3.05017 3.05023C4.36293 1.73748 6.14348 1 8 1H48.8099M48.8099 0H8C5.87827 0 3.84343 0.842849 2.34314 2.34314C0.842849 3.84343 0 5.87827 0 8V38.68C0 40.8017 0.842849 42.8366 2.34314 44.3369C3.84343 45.8371 5.87827 46.68 8 46.68H48.8199C50.9417 46.68 52.9765 45.8371 54.4768 44.3369C55.9771 42.8366 56.8199 40.8017 56.8199 38.68V8C56.8199 5.87827 55.9771 3.84343 54.4768 2.34314C52.9765 0.842849 50.9417 0 48.8199 0H48.8099Z" fill="black"/>
<path d="M82.4102 25.1799H56.1602" stroke="black" stroke-miterlimit="10"/>
<path d="M16.5696 50.0401C21.1094 50.0401 24.7896 46.3599 24.7896 41.8201C24.7896 37.2803 21.1094 33.6001 16.5696 33.6001C12.0298 33.6001 8.34961 37.2803 8.34961 41.8201C8.34961 46.3599 12.0298 50.0401 16.5696 50.0401Z" fill="white" stroke="black" stroke-miterlimit="10"/>
<path d="M16.57 44.14C17.8513 44.14 18.89 43.1013 18.89 41.82C18.89 40.5387 17.8513 39.5 16.57 39.5C15.2887 39.5 14.25 40.5387 14.25 41.82C14.25 43.1013 15.2887 44.14 16.57 44.14Z" fill="black"/>
<path d="M68.2708 50.0401C72.8106 50.0401 76.4908 46.3599 76.4908 41.8201C76.4908 37.2803 72.8106 33.6001 68.2708 33.6001C63.731 33.6001 60.0508 37.2803 60.0508 41.8201C60.0508 46.3599 63.731 50.0401 68.2708 50.0401Z" fill="white" stroke="black" stroke-miterlimit="10"/>
<path d="M68.2692 44.14C69.5505 44.14 70.5892 43.1013 70.5892 41.82C70.5892 40.5387 69.5505 39.5 68.2692 39.5C66.9879 39.5 65.9492 40.5387 65.9492 41.82C65.9492 43.1013 66.9879 44.14 68.2692 44.14Z" fill="black"/>
</svg>
