<svg width="37" height="28" viewBox="0 0 37 28" fill="none" xmlns="http://www.w3.org/2000/svg">
    <path d="M5.95703 10.8328V20.8309C5.95703 21.3832 6.40475 21.8309 6.95703 21.8309H9.02028C9.31498 21.8309 9.59468 21.9609 9.78468 22.1862L13.39 26.4607C13.58 26.6859 13.8597 26.8159 14.1544 26.8159H25.7428C26.0185 26.8159 26.2821 26.702 26.471 26.5012L31.6108 21.039C31.7854 20.8536 31.8826 20.6085 31.8826 20.3538V6.87305C31.8826 6.32076 31.4349 5.87305 30.8826 5.87305H14.0864C13.8316 5.87305 13.5864 5.97034 13.4008 6.14506L9.77387 9.56075C9.58835 9.73547 9.34312 9.83276 9.08828 9.83276H6.95703C6.40475 9.83276 5.95703 10.2805 5.95703 10.8328Z" stroke="#E41E0C" stroke-width="2" stroke-linecap="round" stroke-linejoin="round"></path>
    <path d="M5.88458 15.854H1.89062" stroke="#E41E0C" stroke-width="2" stroke-linecap="round" stroke-linejoin="round"></path>
    <path d="M1.89062 19.8509L1.89062 11.8569" stroke="#E41E0C" stroke-width="2" stroke-linecap="round" stroke-linejoin="round"></path>
    <path d="M22.9258 5.80353L22.9258 1.80957" stroke="#E41E0C" stroke-width="2" stroke-linecap="round" stroke-linejoin="round"></path>
    <path d="M18.9299 1.80957L26.9238 1.80957" stroke="#E41E0C" stroke-width="2" stroke-linecap="round" stroke-linejoin="round"></path>
    <path d="M31.8908 13.8687L35.8848 13.8687" stroke="#E41E0C" stroke-width="2" stroke-linecap="round" stroke-linejoin="round"></path>
    <path d="M35.8848 9.87177L35.8848 17.8657" stroke="#E41E0C" stroke-width="2" stroke-linecap="round" stroke-linejoin="round"></path>
</svg>