<svg width="76" height="47" viewBox="0 0 76 47" fill="none" xmlns="http://www.w3.org/2000/svg">
<path d="M67.13 0.5H8.5C4.08172 0.5 0.5 4.08172 0.5 8.5V38.44C0.5 42.8583 4.08172 46.44 8.5 46.44H67.13C71.5483 46.44 75.13 42.8583 75.13 38.44V8.5C75.13 4.08172 71.5483 0.5 67.13 0.5Z" fill="#FFCF00" stroke="black" stroke-miterlimit="10"/>
<path d="M35.9395 0.5H67.1295C69.2512 0.5 71.286 1.34285 72.7863 2.84315C74.2866 4.34344 75.1295 6.37827 75.1295 8.5V38.44C75.1295 40.5617 74.2866 42.5966 72.7863 44.0969C71.286 45.5971 69.2512 46.44 67.1295 46.44H35.9395V0.5Z" fill="white" stroke="black" stroke-miterlimit="10"/>
<path d="M69.7305 23.1799H43.4805" stroke="black" stroke-miterlimit="10"/>
<path d="M65.8409 11.6799H47.3809" stroke="black" stroke-miterlimit="10"/>
<path d="M65.8409 36.0801H47.3809" stroke="black" stroke-miterlimit="10"/>
<path d="M18.45 23.8601C15.298 23.8651 12.2697 25.0868 9.9967 27.2704C7.72367 29.454 6.38143 32.4309 6.25 35.5801H30.63C30.5036 32.4327 29.1657 29.4559 26.8959 27.2718C24.6261 25.0877 21.5999 23.8653 18.45 23.8601Z" fill="white"/>
<path d="M6.25024 36.5801H30.6302C30.6302 36.4101 30.6302 36.2501 30.6302 36.0801C30.6302 35.9101 30.6302 35.7501 30.6302 35.5801H6.24023C6.24023 35.7501 6.24023 35.9101 6.24023 36.0801C6.24023 36.2501 6.25024 36.4101 6.25024 36.5801Z" fill="black"/>
<path d="M18.45 23.3599C21.7349 23.3601 24.8921 24.6332 27.2583 26.9118C29.6245 29.1904 31.0159 32.2973 31.14 35.5799H31.64C31.5454 32.1432 30.1138 28.8791 27.6495 26.4818C25.1853 24.0845 21.8829 22.7432 18.4449 22.7432C15.007 22.7432 11.7047 24.0845 9.24048 26.4818C6.77626 28.8791 5.34462 32.1432 5.25 35.5799H5.75C5.87914 32.2972 7.27331 29.1918 9.64062 26.9139C12.0079 24.6361 15.1647 23.3625 18.45 23.3599Z" fill="black"/>
<path d="M31.6309 35.5801H31.1309C31.1309 35.7501 31.1309 35.9101 31.1309 36.0801C31.1309 36.2501 31.1309 36.4101 31.1309 36.5801H31.6309C31.6309 36.4101 31.6309 36.2501 31.6309 36.0801C31.6309 35.9101 31.6309 35.7501 31.6309 35.5801Z" fill="black"/>
<path d="M5.73047 36.0801C5.73047 35.9101 5.73047 35.7501 5.73047 35.5801H5.23047C5.23047 35.7501 5.23047 35.9101 5.23047 36.0801C5.23047 36.2501 5.23047 36.4101 5.23047 36.5801H5.73047C5.75047 36.4101 5.73047 36.2501 5.73047 36.0801Z" fill="black"/>
<path d="M18.45 23.3601C15.1647 23.3627 12.0079 24.6363 9.64062 26.9142C7.27331 29.192 5.87914 32.2974 5.75 35.5801H6.25C6.3409 32.4062 7.66554 29.3929 9.94263 27.1801C12.2197 24.9672 15.2698 23.7293 18.4449 23.7293C21.6201 23.7293 24.6703 24.9672 26.9474 27.1801C29.2245 29.3929 30.5491 32.4062 30.64 35.5801H31.14C31.0159 32.2975 29.6245 29.1906 27.2583 26.912C24.8921 24.6334 21.7349 23.3603 18.45 23.3601Z" fill="black"/>
<path d="M30.6309 36.0801C30.6309 36.2501 30.6309 36.4101 30.6309 36.5801H31.1309C31.1309 36.4101 31.1309 36.2501 31.1309 36.0801C31.1309 35.9101 31.1309 35.7501 31.1309 35.5801H30.6309C30.6309 35.7501 30.6309 35.9101 30.6309 36.0801Z" fill="black"/>
<path d="M6.23047 36.0801C6.23047 35.9101 6.23047 35.7501 6.23047 35.5801H5.73047C5.73047 35.7501 5.73047 35.9101 5.73047 36.0801C5.73047 36.2501 5.73047 36.4101 5.73047 36.5801H6.23047C6.25047 36.4101 6.23047 36.2501 6.23047 36.0801Z" fill="black"/>
<path d="M18.4495 26.2399C22.2769 26.2399 25.3795 23.1372 25.3795 19.3099C25.3795 15.4825 22.2769 12.3799 18.4495 12.3799C14.6222 12.3799 11.5195 15.4825 11.5195 19.3099C11.5195 23.1372 14.6222 26.2399 18.4495 26.2399Z" fill="white" stroke="black" stroke-miterlimit="10"/>
</svg>
