<svg width="37" height="52" viewBox="0 0 37 52" fill="none" xmlns="http://www.w3.org/2000/svg">
<path d="M34.8707 39.0899V50.9699H9.14062V37.6499L11.4506 33.6499C15.1406 36.4699 20.5806 38.2499 26.6506 38.2499H27.7806C30.1693 38.2411 32.5502 38.5232 34.8707 39.0899Z" fill="#FFCF00"/>
<path d="M34.8706 16.8301V50.9701H9.14062V37.6501L11.4506 33.6401L21.1406 16.8301H34.8706Z" stroke="black" stroke-miterlimit="10"/>
<path d="M18.3598 9.62012L12.5098 19.1001" stroke="black" stroke-miterlimit="10"/>
<path d="M4.16 5.77002H0" stroke="#FFCF00" stroke-miterlimit="10"/>
<path d="M6.51031 7.25L3.57031 10.19" stroke="#FFCF00" stroke-miterlimit="10"/>
<path d="M6.51031 4.3001L3.57031 1.3501" stroke="#FFCF00" stroke-miterlimit="10"/>
<path d="M31.2301 16.6299V12.9599L36.0801 8.10992V5.76992L31.3001 1.91992H10.5801V9.61992H21.0201L24.3601 12.9599V16.8299" stroke="black" stroke-miterlimit="10"/>
</svg>
