<svg width="18" height="26" viewBox="0 0 18 26" fill="none" xmlns="http://www.w3.org/2000/svg">
<path d="M16.7891 13.3001L10.5991 0.780067C10.4867 0.544479 10.3093 0.345905 10.0879 0.20772C9.86644 0.0695352 9.61012 -0.00250954 9.3491 6.67537e-05C9.08714 -0.000825226 8.83018 0.0718006 8.60744 0.209687C8.3847 0.347574 8.20512 0.54519 8.0891 0.780067L1.8991 13.3001C1.26951 14.5813 0.961438 15.9965 1.00151 17.4235C1.04159 18.8505 1.4286 20.2462 2.1291 21.4901C2.76693 22.6635 3.68502 23.661 4.80164 24.3938C5.91826 25.1266 7.19875 25.5719 8.5291 25.6901C8.7991 25.6901 9.06911 25.6901 9.3491 25.6901C9.6291 25.6901 9.8991 25.6901 10.1691 25.6901C11.4995 25.5719 12.7799 25.1266 13.8966 24.3938C15.0132 23.661 15.9313 22.6635 16.5691 21.4901C17.268 20.2454 17.6533 18.8492 17.6917 17.4223C17.73 15.9953 17.4202 14.5805 16.7891 13.3001Z" fill="#6CE3FF"/>
</svg>
