<svg width="55" height="51" viewBox="0 0 55 51" fill="none" xmlns="http://www.w3.org/2000/svg">
<path d="M29.2296 0.5H25.3496C24.245 0.5 23.3496 1.39543 23.3496 2.5V31.13C23.3496 32.2346 24.245 33.13 25.3496 33.13H29.2296C30.3342 33.13 31.2296 32.2346 31.2296 31.13V2.5C31.2296 1.39543 30.3342 0.5 29.2296 0.5Z" fill="white" stroke="black" stroke-miterlimit="10"/>
<path d="M42.3912 10.3305L40.4512 6.97033C39.8989 6.01375 38.6757 5.686 37.7191 6.23828L12.9335 20.5483C11.9769 21.1006 11.6491 22.3237 12.2014 23.2803L14.1414 26.6405C14.6937 27.5971 15.9169 27.9248 16.8735 27.3726L41.6591 13.0626C42.6157 12.5103 42.9435 11.2871 42.3912 10.3305Z" fill="white" stroke="black" stroke-miterlimit="10"/>
<path d="M39.4155 28.1041L41.3555 24.7285C41.9078 23.7675 41.5764 22.5408 40.6155 21.9885L15.7074 7.67352C14.7464 7.12124 13.5196 7.45255 12.9674 8.41352L11.0274 11.7891C10.4751 12.7501 10.8064 13.9768 11.7674 14.5291L36.6755 28.8441C37.6364 29.3964 38.8632 29.0651 39.4155 28.1041Z" fill="white" stroke="black" stroke-width="1.00344" stroke-miterlimit="10"/>
<path d="M27.2904 27.99C33.3048 27.99 38.1804 23.1143 38.1804 17.1C38.1804 11.0856 33.3048 6.20996 27.2904 6.20996C21.276 6.20996 16.4004 11.0856 16.4004 17.1C16.4004 23.1143 21.276 27.99 27.2904 27.99Z" fill="#FFCF00"/>
<path d="M47.8001 49.9999C51.2684 49.9999 54.0801 47.1883 54.0801 43.7199C54.0801 40.2516 51.2684 37.4399 47.8001 37.4399H6.78006C3.31171 37.4399 0.500061 40.2516 0.500061 43.7199C0.500061 47.1883 3.31171 49.9999 6.78006 49.9999H47.8001Z" fill="white" stroke="black" stroke-miterlimit="10"/>
<path d="M33.8805 46.0399C35.1618 46.0399 36.2005 45.0012 36.2005 43.7199C36.2005 42.4386 35.1618 41.3999 33.8805 41.3999C32.5992 41.3999 31.5605 42.4386 31.5605 43.7199C31.5605 45.0012 32.5992 46.0399 33.8805 46.0399Z" fill="black"/>
<path d="M47.07 46.0399C48.3513 46.0399 49.39 45.0012 49.39 43.7199C49.39 42.4386 48.3513 41.3999 47.07 41.3999C45.7887 41.3999 44.75 42.4386 44.75 43.7199C44.75 45.0012 45.7887 46.0399 47.07 46.0399Z" fill="black"/>
<path d="M7.50945 46.0399C8.79075 46.0399 9.82945 45.0012 9.82945 43.7199C9.82945 42.4386 8.79075 41.3999 7.50945 41.3999C6.22815 41.3999 5.18945 42.4386 5.18945 43.7199C5.18945 45.0012 6.22815 46.0399 7.50945 46.0399Z" fill="black"/>
<path d="M20.7009 46.0399C21.9822 46.0399 23.0209 45.0012 23.0209 43.7199C23.0209 42.4386 21.9822 41.3999 20.7009 41.3999C19.4196 41.3999 18.3809 42.4386 18.3809 43.7199C18.3809 45.0012 19.4196 46.0399 20.7009 46.0399Z" fill="black"/>
<path d="M27.4009 27.6901C33.3049 27.6901 38.0909 22.904 38.0909 17.0001C38.0909 11.0961 33.3049 6.31006 27.4009 6.31006C21.497 6.31006 16.7109 11.0961 16.7109 17.0001C16.7109 22.904 21.497 27.6901 27.4009 27.6901Z" stroke="black" stroke-miterlimit="10"/>
<path d="M27.3991 21.78C30.0391 21.78 32.1791 19.6399 32.1791 17C32.1791 14.36 30.0391 12.22 27.3991 12.22C24.7592 12.22 22.6191 14.36 22.6191 17C22.6191 19.6399 24.7592 21.78 27.3991 21.78Z" fill="white" stroke="black" stroke-miterlimit="10"/>
</svg>
