<svg width="75" height="49" viewBox="0 0 75 49" fill="none" xmlns="http://www.w3.org/2000/svg">
<path d="M54.9199 36.07L56.6499 40.22L51.9998 44.6501H43.9998L34.6499 43.88C34.6499 43.88 29.4498 32.39 29.8698 32.05C30.2898 31.71 45.5499 28.05 45.5499 28.05L54.9199 36.07Z" fill="#F7F8F9"/>
<path d="M9.71008 32.34H2.5C1.96957 32.34 1.46089 32.1293 1.08582 31.7542C0.710743 31.3791 0.5 30.8704 0.5 30.34V2.49998C0.500156 2.18693 0.573887 1.87826 0.715088 1.59886C0.856288 1.31946 1.06104 1.07711 1.31299 0.891312C1.56494 0.70551 1.857 0.58147 2.16565 0.529129C2.4743 0.476789 2.79097 0.497631 3.09009 0.589981L18.2201 5.26997L9.71008 32.34Z" fill="#FFCF00" stroke="black" stroke-miterlimit="10"/>
<path d="M65.1503 35.4101H72.3604C72.8908 35.4101 73.3995 35.1994 73.7745 34.8243C74.1496 34.4492 74.3604 33.9405 74.3604 33.4101V7.92011C74.3636 7.6302 74.3038 7.34303 74.1851 7.07852C74.0664 6.81401 73.8915 6.57849 73.6727 6.38825C73.454 6.198 73.1965 6.05761 72.9181 5.97678C72.6397 5.89594 72.347 5.8766 72.0603 5.92011L58.9403 7.97009C58.6565 8.01458 58.3857 8.11967 58.1461 8.27823C57.9066 8.43678 57.704 8.64509 57.5521 8.88895C57.4003 9.13281 57.3028 9.40652 57.2662 9.69144C57.2297 9.97636 57.255 10.2658 57.3403 10.5401L65.1503 35.4101Z" fill="#FFCF00" stroke="black" stroke-miterlimit="10"/>
<path d="M42.9205 46.1701L36.2705 47.4801L11.3105 27.2601L17.1705 8.62012H31.2005L61.3005 37.4501L56.8905 41.9501L44.8005 30.1401" fill="#F7F8F9"/>
<path d="M42.9205 46.1701L36.2705 47.4801L11.3105 27.2601L17.1705 8.62012H31.2005L61.3005 37.4501L56.8905 41.9501L44.8005 30.1401" stroke="black" stroke-miterlimit="10"/>
<path d="M38.9801 16.07L29.3301 22.71L24.8301 17.11L32.8901 6.14001L40.2001 4.26001L57.4501 11.39L64.1001 32.05L59.4601 35.69L38.9801 16.07Z" fill="#F7F8F9" stroke="black" stroke-miterlimit="10"/>
<path d="M49.58 43.08L44.7 47.95L35 38.25" fill="#F7F8F9"/>
<path d="M49.58 43.08L44.7 47.95L35 38.25" stroke="black" stroke-miterlimit="10"/>
<path d="M55.8901 40.9801L51.6901 45.1901L41.0801 34.5801" stroke="black" stroke-miterlimit="10"/>
</svg>
