<svg width="40" height="34" viewBox="0 0 40 34" fill="none" xmlns="http://www.w3.org/2000/svg">
<path d="M3.03544 13.8995C3.08703 13.3887 3.51701 13 4.03038 13H35.9696C36.483 13 36.913 13.3887 36.9646 13.8995L38.7827 31.8995C38.8422 32.4885 38.3798 33 37.7878 33H2.2122C1.62018 33 1.15776 32.4885 1.21726 31.8995L3.03544 13.8995Z" stroke="#0080C3" stroke-width="2"/>
<circle cx="20" cy="7" r="6" stroke="#0080C3" stroke-width="2"/>
<path d="M25.6498 24.164H24.9208V26H23.5168V21.158H24.9208V23.039H25.6768L26.9908 21.158H28.4848L26.7928 23.48L28.6018 26H26.9458L25.6498 24.164ZM33.1702 22.31H30.6862V26H29.2912V21.158H33.1702V22.31Z" fill="#0080C3"/>
</svg>
