<svg width="51" height="51" viewBox="0 0 51 51" fill="none" xmlns="http://www.w3.org/2000/svg">
<g clip-path="url(#clip0_488_492)">
<path d="M49.39 0.5H1.43C0.916375 0.5 0.5 0.916375 0.5 1.43V4.42C0.5 4.93362 0.916375 5.35 1.43 5.35H49.39C49.9036 5.35 50.32 4.93362 50.32 4.42V1.43C50.32 0.916375 49.9036 0.5 49.39 0.5Z" fill="white" stroke="black" stroke-miterlimit="10"/>
<path d="M47.5601 5.3501H3.26008C2.74645 5.3501 2.33008 5.76647 2.33008 6.2801V41.2301C2.33008 41.7437 2.74645 42.1601 3.26008 42.1601H47.5601C48.0737 42.1601 48.4901 41.7437 48.4901 41.2301V6.2801C48.4901 5.76647 48.0737 5.3501 47.5601 5.3501Z" fill="white" stroke="black" stroke-miterlimit="10"/>
<path d="M43.1298 7.63989H7.68977C7.17614 7.63989 6.75977 8.05627 6.75977 8.56989V20.6999C6.75977 21.2135 7.17614 21.6299 7.68977 21.6299H43.1298C43.6434 21.6299 44.0598 21.2135 44.0598 20.6999V8.56989C44.0598 8.05627 43.6434 7.63989 43.1298 7.63989Z" fill="#FFCF00" stroke="black" stroke-miterlimit="10"/>
<path d="M25.4098 15.2301C26.6911 15.2301 27.7298 14.1914 27.7298 12.9101C27.7298 11.6288 26.6911 10.5901 25.4098 10.5901C24.1285 10.5901 23.0898 11.6288 23.0898 12.9101C23.0898 14.1914 24.1285 15.2301 25.4098 15.2301Z" fill="black"/>
<path d="M43.1298 24.6499H7.68977C7.17614 24.6499 6.75977 25.0663 6.75977 25.5799V37.7099C6.75977 38.2235 7.17614 38.6399 7.68977 38.6399H43.1298C43.6434 38.6399 44.0598 38.2235 44.0598 37.7099V25.5799C44.0598 25.0663 43.6434 24.6499 43.1298 24.6499Z" fill="#FFCF00" stroke="black" stroke-miterlimit="10"/>
<path d="M25.4098 32.2501C26.6911 32.2501 27.7298 31.2114 27.7298 29.9301C27.7298 28.6488 26.6911 27.6101 25.4098 27.6101C24.1285 27.6101 23.0898 28.6488 23.0898 29.9301C23.0898 31.2114 24.1285 32.2501 25.4098 32.2501Z" fill="black"/>
<path d="M7.51906 50.3399H4.28906V42.1599H9.44906L7.51906 50.3399Z" fill="#FFCF00" stroke="black" stroke-miterlimit="10"/>
<path d="M43.2994 50.3399H46.5294V42.1599H41.3594L43.2994 50.3399Z" fill="#FFCF00" stroke="black" stroke-miterlimit="10"/>
</g>
<defs>
<clipPath id="clip0_488_492">
<rect width="50.82" height="50.84" fill="white"/>
</clipPath>
</defs>
</svg>
