<svg width="58" height="52" viewBox="0 0 58 52" fill="none" xmlns="http://www.w3.org/2000/svg">
<g clip-path="url(#clip0_488_425)">
<path d="M11.5391 17.0799C10.6108 17.0799 9.72059 16.7112 9.06421 16.0548C8.40783 15.3984 8.03906 14.5082 8.03906 13.5799V8.66992C8.03906 7.74166 8.40783 6.85145 9.06421 6.19507C9.72059 5.53869 10.6108 5.16992 11.5391 5.16992H16.3491V17.0799H11.5391Z" fill="white"/>
<path d="M15.8691 5.66992V16.5799H11.5391C10.7434 16.5799 9.98033 16.2639 9.41772 15.7013C8.85512 15.1387 8.53906 14.3756 8.53906 13.5799V8.66992C8.53906 7.87427 8.85512 7.11122 9.41772 6.54861C9.98033 5.98601 10.7434 5.66992 11.5391 5.66992H15.8691ZM16.8691 4.66992H11.5391C10.4782 4.66992 9.46078 5.09135 8.71063 5.84149C7.96049 6.59164 7.53906 7.60906 7.53906 8.66992V13.5799C7.53906 14.6408 7.96049 15.6582 8.71063 16.4084C9.46078 17.1585 10.4782 17.5799 11.5391 17.5799H16.8691V4.66992Z" fill="black"/>
<path d="M8.08 11.1299H0" stroke="black" stroke-miterlimit="10"/>
<path d="M21.6703 20.5999C19.6538 20.5973 17.7207 19.7943 16.2957 18.3675C14.8707 16.9406 14.0703 15.0065 14.0703 12.9899V9.25989C14.0703 7.24332 14.8707 5.30922 16.2957 3.88235C17.7207 2.45549 19.6538 1.65255 21.6703 1.6499H28.4203V20.5999H21.6703Z" fill="white"/>
<path d="M27.9203 2.17993V20.1299H21.6804C19.7955 20.1273 17.9886 19.3773 16.6558 18.0445C15.323 16.7117 14.573 14.9048 14.5703 13.0199V9.28992C14.573 7.40504 15.323 5.59813 16.6558 4.26532C17.9886 2.93251 19.7955 2.18258 21.6804 2.17993H27.9203ZM28.9203 1.17993H21.6804C20.6153 1.17993 19.5607 1.38971 18.5768 1.79727C17.5928 2.20484 16.6988 2.80221 15.9457 3.5553C15.1926 4.30838 14.5952 5.20242 14.1877 6.18637C13.7801 7.17032 13.5703 8.2249 13.5703 9.28992V13.0199C13.5703 14.0849 13.7801 15.1396 14.1877 16.1235C14.5952 17.1075 15.1926 18.0015 15.9457 18.7546C16.6988 19.5077 17.5928 20.105 18.5768 20.5126C19.5607 20.9202 20.6153 21.1299 21.6804 21.1299H28.9203V1.17993Z" fill="black"/>
<path d="M49.5004 21.18C51.4108 20.5123 53.0664 19.2673 54.2381 17.6172C55.4098 15.9672 56.0396 13.9937 56.0403 11.97V10.26C56.0403 7.66881 55.011 5.18379 53.1788 3.35156C51.3465 1.51933 48.8615 0.48999 46.2703 0.48999H27.0703V21.74H29.9003V22.35C29.9003 23.4109 30.3218 24.4283 31.0719 25.1784C31.822 25.9286 32.8395 26.35 33.9003 26.35H35.9603L38.7703 33.2C39.0199 33.8075 39.1161 34.4672 39.0503 35.1207C38.9845 35.7743 38.7587 36.4015 38.393 36.9471C38.0273 37.4927 37.5329 37.9399 36.9534 38.2491C36.3739 38.5583 35.7271 38.72 35.0703 38.72H32.3503V51.49H52.6503C53.7112 51.49 54.7286 51.0686 55.4788 50.3184C56.2289 49.5683 56.6503 48.5509 56.6503 47.49V38.72L49.5004 21.18ZM33.9003 24.35C33.3699 24.35 32.8612 24.1393 32.4861 23.7642C32.1111 23.3891 31.9003 22.8804 31.9003 22.35V21.74H34.0803L35.1403 24.35H33.9003Z" fill="#FFCF00" stroke="black" stroke-miterlimit="10"/>
</g>
<defs>
<clipPath id="clip0_488_425">
<rect width="57.18" height="52" fill="white"/>
</clipPath>
</defs>
</svg>
