<svg width="60" height="50" viewBox="0 0 60 50" fill="none" xmlns="http://www.w3.org/2000/svg">
<g clip-path="url(#clip0_488_376)">
<path d="M53.45 18.6001H5.63C2.79678 18.6001 0.5 20.8969 0.5 23.7301V23.7401C0.5 26.5733 2.79678 28.8701 5.63 28.8701H53.45C56.2832 28.8701 58.58 26.5733 58.58 23.7401V23.7301C58.58 20.8969 56.2832 18.6001 53.45 18.6001Z" fill="#FFCF00" stroke="black" stroke-miterlimit="10"/>
<path d="M45.5709 0.5H13.5109C8.51276 0.5 4.46094 4.55182 4.46094 9.55C4.46094 14.5482 8.51276 18.6 13.5109 18.6H45.5709C50.5691 18.6 54.6209 14.5482 54.6209 9.55C54.6209 4.55182 50.5691 0.5 45.5709 0.5Z" fill="white" stroke="black" stroke-miterlimit="10"/>
<path d="M53.57 23.73H5.5" stroke="black" stroke-miterlimit="10"/>
<path d="M46.9509 9.55005H12.1309" stroke="black" stroke-miterlimit="10"/>
<path d="M53.45 33.5701H5.63C2.79678 33.5701 0.5 35.8668 0.5 38.7001V44.3501C0.5 47.1833 2.79678 49.4801 5.63 49.4801H53.45C56.2832 49.4801 58.58 47.1833 58.58 44.3501V38.7001C58.58 35.8668 56.2832 33.5701 53.45 33.5701Z" fill="white" stroke="black" stroke-miterlimit="10"/>
<path d="M56.25 28.9099H2.83C1.54318 28.9099 0.5 29.9531 0.5 31.2399C0.5 32.5267 1.54318 33.5699 2.83 33.5699H56.25C57.5368 33.5699 58.58 32.5267 58.58 31.2399C58.58 29.9531 57.5368 28.9099 56.25 28.9099Z" fill="#FFCF00" stroke="black" stroke-miterlimit="10"/>
<path d="M5.91055 38.5601C6.51806 38.5601 7.01055 38.0676 7.01055 37.4601C7.01055 36.8526 6.51806 36.3601 5.91055 36.3601C5.30303 36.3601 4.81055 36.8526 4.81055 37.4601C4.81055 38.0676 5.30303 38.5601 5.91055 38.5601Z" fill="black"/>
<path d="M13.8305 38.5601C14.438 38.5601 14.9305 38.0676 14.9305 37.4601C14.9305 36.8526 14.438 36.3601 13.8305 36.3601C13.223 36.3601 12.7305 36.8526 12.7305 37.4601C12.7305 38.0676 13.223 38.5601 13.8305 38.5601Z" fill="black"/>
<path d="M21.7895 38.5601C22.397 38.5601 22.8895 38.0676 22.8895 37.4601C22.8895 36.8526 22.397 36.3601 21.7895 36.3601C21.1819 36.3601 20.6895 36.8526 20.6895 37.4601C20.6895 38.0676 21.1819 38.5601 21.7895 38.5601Z" fill="black"/>
<path d="M29.7094 38.5601C30.3169 38.5601 30.8094 38.0676 30.8094 37.4601C30.8094 36.8526 30.3169 36.3601 29.7094 36.3601C29.1019 36.3601 28.6094 36.8526 28.6094 37.4601C28.6094 38.0676 29.1019 38.5601 29.7094 38.5601Z" fill="black"/>
<path d="M37.1996 38.5601C37.8071 38.5601 38.2996 38.0676 38.2996 37.4601C38.2996 36.8526 37.8071 36.3601 37.1996 36.3601C36.5921 36.3601 36.0996 36.8526 36.0996 37.4601C36.0996 38.0676 36.5921 38.5601 37.1996 38.5601Z" fill="black"/>
<path d="M45.1195 38.5601C45.727 38.5601 46.2195 38.0676 46.2195 37.4601C46.2195 36.8526 45.727 36.3601 45.1195 36.3601C44.512 36.3601 44.0195 36.8526 44.0195 37.4601C44.0195 38.0676 44.512 38.5601 45.1195 38.5601Z" fill="black"/>
<path d="M53.0805 38.5601C53.688 38.5601 54.1805 38.0676 54.1805 37.4601C54.1805 36.8526 53.688 36.3601 53.0805 36.3601C52.473 36.3601 51.9805 36.8526 51.9805 37.4601C51.9805 38.0676 52.473 38.5601 53.0805 38.5601Z" fill="black"/>
<path d="M5.91055 46.5101C6.51806 46.5101 7.01055 46.0176 7.01055 45.4101C7.01055 44.8025 6.51806 44.3101 5.91055 44.3101C5.30303 44.3101 4.81055 44.8025 4.81055 45.4101C4.81055 46.0176 5.30303 46.5101 5.91055 46.5101Z" fill="black"/>
<path d="M13.8305 46.5101C14.438 46.5101 14.9305 46.0176 14.9305 45.4101C14.9305 44.8025 14.438 44.3101 13.8305 44.3101C13.223 44.3101 12.7305 44.8025 12.7305 45.4101C12.7305 46.0176 13.223 46.5101 13.8305 46.5101Z" fill="black"/>
<path d="M21.7895 46.5101C22.397 46.5101 22.8895 46.0176 22.8895 45.4101C22.8895 44.8025 22.397 44.3101 21.7895 44.3101C21.1819 44.3101 20.6895 44.8025 20.6895 45.4101C20.6895 46.0176 21.1819 46.5101 21.7895 46.5101Z" fill="black"/>
<path d="M29.7094 46.5101C30.3169 46.5101 30.8094 46.0176 30.8094 45.4101C30.8094 44.8025 30.3169 44.3101 29.7094 44.3101C29.1019 44.3101 28.6094 44.8025 28.6094 45.4101C28.6094 46.0176 29.1019 46.5101 29.7094 46.5101Z" fill="black"/>
<path d="M37.1996 46.5101C37.8071 46.5101 38.2996 46.0176 38.2996 45.4101C38.2996 44.8025 37.8071 44.3101 37.1996 44.3101C36.5921 44.3101 36.0996 44.8025 36.0996 45.4101C36.0996 46.0176 36.5921 46.5101 37.1996 46.5101Z" fill="black"/>
<path d="M45.1195 46.5101C45.727 46.5101 46.2195 46.0176 46.2195 45.4101C46.2195 44.8025 45.727 44.3101 45.1195 44.3101C44.512 44.3101 44.0195 44.8025 44.0195 45.4101C44.0195 46.0176 44.512 46.5101 45.1195 46.5101Z" fill="black"/>
<path d="M53.0805 46.5101C53.688 46.5101 54.1805 46.0176 54.1805 45.4101C54.1805 44.8025 53.688 44.3101 53.0805 44.3101C52.473 44.3101 51.9805 44.8025 51.9805 45.4101C51.9805 46.0176 52.473 46.5101 53.0805 46.5101Z" fill="black"/>
<path d="M9.8793 42.5301C10.4868 42.5301 10.9793 42.0376 10.9793 41.4301C10.9793 40.8226 10.4868 40.3301 9.8793 40.3301C9.27178 40.3301 8.7793 40.8226 8.7793 41.4301C8.7793 42.0376 9.27178 42.5301 9.8793 42.5301Z" fill="black"/>
<path d="M17.8402 42.5301C18.4477 42.5301 18.9402 42.0376 18.9402 41.4301C18.9402 40.8226 18.4477 40.3301 17.8402 40.3301C17.2327 40.3301 16.7402 40.8226 16.7402 41.4301C16.7402 42.0376 17.2327 42.5301 17.8402 42.5301Z" fill="black"/>
<path d="M25.7602 42.5301C26.3677 42.5301 26.8602 42.0376 26.8602 41.4301C26.8602 40.8226 26.3677 40.3301 25.7602 40.3301C25.1526 40.3301 24.6602 40.8226 24.6602 41.4301C24.6602 42.0376 25.1526 42.5301 25.7602 42.5301Z" fill="black"/>
<path d="M33.2504 42.5301C33.8579 42.5301 34.3504 42.0376 34.3504 41.4301C34.3504 40.8226 33.8579 40.3301 33.2504 40.3301C32.6429 40.3301 32.1504 40.8226 32.1504 41.4301C32.1504 42.0376 32.6429 42.5301 33.2504 42.5301Z" fill="black"/>
<path d="M41.1703 42.5301C41.7778 42.5301 42.2703 42.0376 42.2703 41.4301C42.2703 40.8226 41.7778 40.3301 41.1703 40.3301C40.5628 40.3301 40.0703 40.8226 40.0703 41.4301C40.0703 42.0376 40.5628 42.5301 41.1703 42.5301Z" fill="black"/>
<path d="M49.1293 42.5301C49.7368 42.5301 50.2293 42.0376 50.2293 41.4301C50.2293 40.8226 49.7368 40.3301 49.1293 40.3301C48.5218 40.3301 48.0293 40.8226 48.0293 41.4301C48.0293 42.0376 48.5218 42.5301 49.1293 42.5301Z" fill="black"/>
</g>
<defs>
<clipPath id="clip0_488_376">
<rect width="59.08" height="49.99" fill="white"/>
</clipPath>
</defs>
</svg>
