<svg width="255" height="39" viewBox="0 0 255 39" fill="none" xmlns="http://www.w3.org/2000/svg">
<path d="M19.6016 8.14062V12.96H6.16895V38H0.0371094V8.14062H19.6016ZM4.05664 19.0303H11.0293C13.3809 19.0303 15.4043 19.4199 17.0996 20.1992C18.7949 20.9785 20.1006 22.0723 21.0166 23.4805C21.9326 24.8887 22.3906 26.5293 22.3906 28.4023C22.3906 29.8242 22.1309 31.123 21.6113 32.2988C21.0918 33.4609 20.333 34.4727 19.335 35.334C18.3506 36.1816 17.1611 36.8379 15.7666 37.3027C14.3721 37.7676 12.793 38 11.0293 38H0.0371094V8.14062H6.20996V33.2012H11.0293C12.2051 33.2012 13.1758 32.9824 13.9414 32.5449C14.707 32.1074 15.2812 31.5264 15.6641 30.8018C16.0605 30.0635 16.2588 29.25 16.2588 28.3613C16.2588 27.5137 16.0605 26.748 15.6641 26.0645C15.2812 25.3672 14.707 24.8203 13.9414 24.4238C13.1758 24.0273 12.2051 23.8291 11.0293 23.8291H4.05664V19.0303ZM38.5508 13.2471L30.4297 38H23.8877L34.9824 8.14062H39.1455L38.5508 13.2471ZM45.2979 38L37.1562 13.2471L36.5 8.14062H40.7041L51.8604 38H45.2979ZM44.9287 26.8848V31.7041H29.1582V26.8848H44.9287ZM74.9111 8.14062V12.96H60.0635V8.14062H74.9111ZM79.2998 8.14062V38H73.1475V8.14062H79.2998ZM59.2842 8.14062H65.416L64.6572 23.1318C64.5479 25.374 64.3359 27.3223 64.0215 28.9766C63.7207 30.6309 63.3105 32.0391 62.791 33.2012C62.2715 34.3496 61.6289 35.2793 60.8633 35.9902C60.1113 36.6875 59.2227 37.2002 58.1973 37.5283C57.1719 37.8428 56.0029 38 54.6904 38H53.1729V33.2012L53.9521 33.1396C54.6221 33.0713 55.21 32.8936 55.7158 32.6064C56.2217 32.3193 56.6523 31.8887 57.0078 31.3145C57.377 30.7402 57.6777 30.0088 57.9102 29.1201C58.1562 28.2178 58.3477 27.1172 58.4844 25.8184C58.6348 24.5195 58.7373 23.002 58.792 21.2656L59.2842 8.14062ZM97.3877 8.14062V38H91.2559V8.14062H97.3877ZM106.575 8.14062V12.96H82.2119V8.14062H106.575ZM116.029 22.8652V27.5H104.442V22.8652H116.029ZM138.629 28.0947H144.761C144.638 30.1045 144.084 31.8887 143.1 33.4473C142.129 35.0059 140.769 36.2227 139.019 37.0977C137.282 37.9727 135.19 38.4102 132.743 38.4102C130.829 38.4102 129.113 38.082 127.596 37.4258C126.078 36.7559 124.779 35.7988 123.699 34.5547C122.633 33.3105 121.819 31.8066 121.259 30.043C120.698 28.2793 120.418 26.3037 120.418 24.1162V22.0449C120.418 19.8574 120.705 17.8818 121.279 16.1182C121.867 14.3408 122.701 12.8301 123.781 11.5859C124.875 10.3418 126.181 9.38477 127.698 8.71484C129.216 8.04492 130.911 7.70996 132.784 7.70996C135.272 7.70996 137.371 8.16113 139.08 9.06348C140.803 9.96582 142.136 11.21 143.079 12.7959C144.036 14.3818 144.61 16.1865 144.802 18.21H138.649C138.581 17.0068 138.342 15.9883 137.932 15.1543C137.521 14.3066 136.899 13.6709 136.065 13.2471C135.245 12.8096 134.151 12.5908 132.784 12.5908C131.759 12.5908 130.863 12.7822 130.098 13.165C129.332 13.5479 128.689 14.1289 128.17 14.9082C127.65 15.6875 127.261 16.6719 127.001 17.8613C126.755 19.0371 126.632 20.418 126.632 22.0039V24.1162C126.632 25.6611 126.748 27.0215 126.98 28.1973C127.213 29.3594 127.568 30.3438 128.047 31.1504C128.539 31.9434 129.168 32.5449 129.934 32.9551C130.713 33.3516 131.649 33.5498 132.743 33.5498C134.028 33.5498 135.088 33.3447 135.922 32.9346C136.756 32.5244 137.392 31.916 137.829 31.1094C138.28 30.3027 138.547 29.2979 138.629 28.0947ZM161.536 8.14062V38H155.404V8.14062H161.536ZM170.724 8.14062V12.96H146.36V8.14062H170.724ZM185.858 27.3564H178.25V22.5576H185.858C187.034 22.5576 187.991 22.3662 188.729 21.9834C189.468 21.5869 190.008 21.04 190.35 20.3428C190.691 19.6455 190.862 18.8594 190.862 17.9844C190.862 17.0957 190.691 16.2686 190.35 15.5029C190.008 14.7373 189.468 14.1221 188.729 13.6572C187.991 13.1924 187.034 12.96 185.858 12.96H180.383V38H174.23V8.14062H185.858C188.196 8.14062 190.199 8.56445 191.867 9.41211C193.549 10.2461 194.834 11.4014 195.723 12.8779C196.611 14.3545 197.056 16.043 197.056 17.9434C197.056 19.8711 196.611 21.5391 195.723 22.9473C194.834 24.3555 193.549 25.4424 191.867 26.208C190.199 26.9736 188.196 27.3564 185.858 27.3564ZM225.828 22.373V23.7881C225.828 26.0576 225.521 28.0947 224.905 29.8994C224.29 31.7041 223.422 33.2422 222.301 34.5137C221.18 35.7715 219.84 36.7354 218.281 37.4053C216.736 38.0752 215.021 38.4102 213.134 38.4102C211.261 38.4102 209.545 38.0752 207.986 37.4053C206.441 36.7354 205.102 35.7715 203.967 34.5137C202.832 33.2422 201.95 31.7041 201.321 29.8994C200.706 28.0947 200.398 26.0576 200.398 23.7881V22.373C200.398 20.0898 200.706 18.0527 201.321 16.2617C201.937 14.457 202.805 12.9189 203.926 11.6475C205.061 10.376 206.4 9.40527 207.945 8.73535C209.504 8.06543 211.22 7.73047 213.093 7.73047C214.979 7.73047 216.695 8.06543 218.24 8.73535C219.799 9.40527 221.139 10.376 222.26 11.6475C223.395 12.9189 224.27 14.457 224.885 16.2617C225.514 18.0527 225.828 20.0898 225.828 22.373ZM219.614 23.7881V22.332C219.614 20.7461 219.471 19.3516 219.184 18.1484C218.896 16.9453 218.473 15.9336 217.912 15.1133C217.352 14.293 216.668 13.6777 215.861 13.2676C215.055 12.8438 214.132 12.6318 213.093 12.6318C212.054 12.6318 211.131 12.8438 210.324 13.2676C209.531 13.6777 208.854 14.293 208.294 15.1133C207.747 15.9336 207.33 16.9453 207.043 18.1484C206.756 19.3516 206.612 20.7461 206.612 22.332V23.7881C206.612 25.3604 206.756 26.7549 207.043 27.9717C207.33 29.1748 207.754 30.1934 208.314 31.0273C208.875 31.8477 209.559 32.4697 210.365 32.8936C211.172 33.3174 212.095 33.5293 213.134 33.5293C214.173 33.5293 215.096 33.3174 215.902 32.8936C216.709 32.4697 217.386 31.8477 217.933 31.0273C218.479 30.1934 218.896 29.1748 219.184 27.9717C219.471 26.7549 219.614 25.3604 219.614 23.7881ZM236.185 28.3203L248.182 8.14062H254.334V38H248.182V17.8203L236.185 38H230.032V8.14062H236.185V28.3203ZM245.167 0.306641H249.371C249.371 1.48242 249.077 2.52832 248.489 3.44434C247.915 4.34668 247.095 5.05762 246.028 5.57715C244.962 6.08301 243.704 6.33594 242.255 6.33594C240.054 6.33594 238.311 5.77539 237.025 4.6543C235.754 3.5332 235.118 2.08398 235.118 0.306641H239.302C239.302 1.01758 239.521 1.65332 239.958 2.21387C240.409 2.77441 241.175 3.05469 242.255 3.05469C243.321 3.05469 244.073 2.77441 244.511 2.21387C244.948 1.65332 245.167 1.01758 245.167 0.306641Z" fill="#BBBCBE"/>
</svg>
