<svg width="179" height="42" viewBox="0 0 179 42" fill="none" xmlns="http://www.w3.org/2000/svg">
<mask id="path-1-inside-1" fill="white">
<path fill-rule="evenodd" clip-rule="evenodd" d="M2 0C0.895431 0 0 0.89543 0 2V40C0 41.1046 0.89543 42 2 42H168C169.105 42 170 41.1046 170 40V26.9462L177.737 21.8343C178.335 21.439 178.335 20.561 177.737 20.1657L170 15.0538V2C170 0.895431 169.105 0 168 0H2Z"/>
</mask>
<path d="M170 26.9462L169.449 26.1118L169 26.4083V26.9462H170ZM177.737 21.8343L178.288 22.6687V22.6687L177.737 21.8343ZM177.737 20.1657L178.288 19.3313L177.737 20.1657ZM170 15.0538H169V15.5917L169.449 15.8882L170 15.0538ZM1 2C1 1.44772 1.44772 1 2 1V-1C0.343146 -1 -1 0.343146 -1 2H1ZM1 40V2H-1V40H1ZM2 41C1.44772 41 1 40.5523 1 40H-1C-1 41.6569 0.343145 43 2 43V41ZM168 41H2V43H168V41ZM169 40C169 40.5523 168.552 41 168 41V43C169.657 43 171 41.6569 171 40H169ZM169 26.9462V40H171V26.9462H169ZM177.186 21L169.449 26.1118L170.551 27.7805L178.288 22.6687L177.186 21ZM177.186 21V21L178.288 22.6687C179.485 21.8781 179.485 20.1219 178.288 19.3313L177.186 21ZM169.449 15.8882L177.186 21L178.288 19.3313L170.551 14.2195L169.449 15.8882ZM169 2V15.0538H171V2H169ZM168 1C168.552 1 169 1.44772 169 2H171C171 0.343145 169.657 -1 168 -1V1ZM2 1H168V-1H2V1Z" fill="#E0E0E0" mask="url(#path-1-inside-1)"/>
</svg>
