<svg width="40" height="34" viewBox="0 0 40 34" fill="none" xmlns="http://www.w3.org/2000/svg">
<path d="M16.042 23.525L15.196 24.407V26H13.747V19.7H15.196V22.643L17.986 19.7H19.606L16.996 22.508L19.759 26H18.058L16.042 23.525ZM24.4376 22.751H25.7696V25.307C25.4276 25.565 25.0316 25.763 24.5816 25.901C24.1316 26.039 23.6786 26.108 23.2226 26.108C22.5686 26.108 21.9806 25.97 21.4586 25.694C20.9366 25.412 20.5256 25.025 20.2256 24.533C19.9316 24.035 19.7846 23.474 19.7846 22.85C19.7846 22.226 19.9316 21.668 20.2256 21.176C20.5256 20.678 20.9396 20.291 21.4676 20.015C21.9956 19.733 22.5896 19.592 23.2496 19.592C23.8016 19.592 24.3026 19.685 24.7526 19.871C25.2026 20.057 25.5806 20.327 25.8866 20.681L24.9506 21.545C24.5006 21.071 23.9576 20.834 23.3216 20.834C22.9196 20.834 22.5626 20.918 22.2506 21.086C21.9386 21.254 21.6956 21.491 21.5216 21.797C21.3476 22.103 21.2606 22.454 21.2606 22.85C21.2606 23.24 21.3476 23.588 21.5216 23.894C21.6956 24.2 21.9356 24.44 22.2416 24.614C22.5536 24.782 22.9076 24.866 23.3036 24.866C23.7236 24.866 24.1016 24.776 24.4376 24.596V22.751Z" fill="#0080C3"/>
<path d="M3.03544 13.8995C3.08703 13.3887 3.51701 13 4.03038 13H35.9696C36.483 13 36.913 13.3887 36.9646 13.8995L38.7827 31.8995C38.8422 32.4885 38.3798 33 37.7878 33H2.2122C1.62018 33 1.15776 32.4885 1.21726 31.8995L3.03544 13.8995Z" stroke="#0080C3" stroke-width="2"/>
<circle cx="20" cy="7" r="6" stroke="#0080C3" stroke-width="2"/>
</svg>
