<svg width="41" height="40" viewBox="0 0 41 40" fill="none" xmlns="http://www.w3.org/2000/svg">
<path d="M8 2.15332V7.65332" stroke="black" stroke-width="2"/>
<path d="M16 2.15332V7.65332" stroke="black" stroke-width="2"/>
<path d="M24 2.15332V7.65332" stroke="black" stroke-width="2"/>
<path d="M32 2.15332V7.65332" stroke="black" stroke-width="2"/>
<path d="M10 36.6533H30.5" stroke="black" stroke-width="2" stroke-linecap="round"/>
<path d="M1 7.65332H38.5" stroke="black" stroke-width="2" stroke-linecap="round"/>
<path d="M4.5 36.6533H2.11803C1.37465 36.6533 0.891157 35.871 1.22361 35.2061L3.72361 30.2061C3.893 29.8673 4.23926 29.6533 4.61803 29.6533H35.882C36.2607 29.6533 36.607 29.8673 36.7764 30.2061L39.2764 35.2061C39.6088 35.871 39.1253 36.6533 38.382 36.6533H36" stroke="black" stroke-width="2" stroke-linecap="round"/>
<circle cx="33.5" cy="36.1533" r="2.5" stroke="black" stroke-width="2"/>
<circle cx="33.5" cy="36.1533" r="2.5" stroke="black" stroke-width="2"/>
<circle cx="7.5" cy="36.1533" r="2.5" stroke="black" stroke-width="2"/>
<circle cx="7.5" cy="36.1533" r="2.5" stroke="black" stroke-width="2"/>
<mask id="path-10-inside-1" fill="white">
<rect y="0.65332" width="40" height="12" rx="1"/>
</mask>
<rect y="0.65332" width="40" height="12" rx="1" stroke="black" stroke-width="4" mask="url(#path-10-inside-1)"/>
<path d="M8.5 11.6533L31 18.6533" stroke="black" stroke-width="2"/>
<path d="M31 11.6533L9.5 18.6533" stroke="black" stroke-width="2"/>
<path d="M8.5 29.6533L31 20.6533" stroke="black" stroke-width="2"/>
<path d="M31 29.6533L9.5 21.1533" stroke="black" stroke-width="2"/>
<circle cx="33.5" cy="20.1533" r="2.5" stroke="black" stroke-width="2"/>
<circle cx="33.5" cy="20.1533" r="2.5" stroke="black" stroke-width="2"/>
<circle cx="7.5" cy="20.1533" r="2.5" stroke="black" stroke-width="2"/>
<circle cx="7.5" cy="20.1533" r="2.5" stroke="black" stroke-width="2"/>
</svg>
